<?xml version="1.0" encoding="UTF-8" standalone="no"?>
<!-- Created with Inkscape (http://www.inkscape.org/) -->

<svg
   width="819.78558"
   height="224.29207"
   viewBox="0 0 216.9016 59.343942"
   version="1.1"
   id="svg1"
   xml:space="preserve"
   inkscape:version="1.4.2 (ebf0e940d0, 2025-05-08)"
   sodipodi:docname="meteor-logo-white-text.svg"
   xmlns:inkscape="http://www.inkscape.org/namespaces/inkscape"
   xmlns:sodipodi="http://sodipodi.sourceforge.net/DTD/sodipodi-0.dtd"
   xmlns="http://www.w3.org/2000/svg"
   xmlns:svg="http://www.w3.org/2000/svg"><sodipodi:namedview
     id="namedview1"
     pagecolor="#ffffff"
     bordercolor="#000000"
     borderopacity="0.25"
     inkscape:showpageshadow="2"
     inkscape:pageopacity="0.0"
     inkscape:pagecheckerboard="0"
     inkscape:deskcolor="#d1d1d1"
     inkscape:document-units="mm"
     inkscape:zoom="0.69647136"
     inkscape:cx="341.72259"
     inkscape:cy="-89.020172"
     inkscape:window-width="1920"
     inkscape:window-height="1048"
     inkscape:window-x="0"
     inkscape:window-y="0"
     inkscape:window-maximized="1"
     inkscape:current-layer="layer1"
     showguides="false" /><defs
     id="defs1" /><g
     inkscape:label="Layer 1"
     inkscape:groupmode="layer"
     id="layer1"
     transform="translate(-37.702799,-65.244917)"><path
       style="font-weight:bold;font-size:3.175px;font-family:Montserrat;-inkscape-font-specification:'Montserrat Bold';fill:#f4f8f8;fill-opacity:1;stroke-width:4.10854"
       d="m 149.90755,92.329552 c 0,0.09784 -0.0495,0.788528 -0.14753,2.070703 h -20.06611 c 0.36168,1.643411 1.21617,2.941717 2.56372,3.894901 1.34755,0.953278 3.02389,1.429841 5.02886,1.429841 1.38046,0 2.5966,-0.197219 3.64838,-0.591621 1.08465,-0.427321 2.08714,-1.084655 3.00746,-1.972108 l 4.0921,4.437232 c -2.498,2.85954 -6.14638,4.28931 -10.94515,4.28931 -2.99103,0 -5.63692,-0.57517 -7.93771,-1.72558 -2.30079,-1.18326 -4.07566,-2.81024 -5.32467,-4.880949 -1.24894,-2.070707 -1.87349,-4.420791 -1.87349,-7.050261 0,-2.596606 0.60809,-4.930251 1.8242,-7.000955 1.24894,-2.103578 2.94172,-3.730564 5.07815,-4.880948 2.16932,-1.183259 4.58513,-1.774892 7.24746,-1.774892 2.59661,0 4.94668,0.558714 7.05027,1.676287 2.10357,1.117574 3.74698,2.728064 4.93024,4.83164 1.21618,2.070713 1.82419,4.486532 1.82419,7.247475 z m -13.7554,-7.937707 c -1.74201,0 -3.20466,0.492997 -4.38792,1.479073 -1.18326,0.986051 -1.90637,2.333646 -2.16931,4.042803 h 13.06516 c -0.26291,-1.676283 -0.98605,-3.007454 -2.16931,-3.993497 -1.18326,-1.018812 -2.62946,-1.528301 -4.33862,-1.528301 z m 35.99083,19.819605 c -0.75606,0.55887 -1.69277,0.98605 -2.81024,1.28186 -1.08466,0.26291 -2.23503,0.39445 -3.45117,0.39445 -3.15537,0 -5.60405,-0.8053 -7.34607,-2.41583 -1.70916,-1.61054 -2.56373,-3.977061 -2.56373,-7.099556 V 85.476526 h -4.09211 V 79.56022 h 4.09211 v -6.458625 h 7.69119 v 6.458625 h 6.60653 v 5.916306 h -6.60653 V 96.27377 c 0,1.117574 0.27934,1.988532 0.83822,2.613035 0.59163,0.591628 1.41339,0.887444 2.46512,0.887444 1.21618,0 2.2515,-0.328752 3.10606,-0.98605 z m 29.48287,-11.881898 c 0,0.09784 -0.0495,0.788528 -0.14753,2.070703 H 181.4122 c 0.36152,1.643411 1.21602,2.941717 2.56373,3.894901 1.34755,0.953278 3.02388,1.429841 5.02885,1.429841 1.38047,0 2.59661,-0.197219 3.64838,-0.591621 1.08467,-0.427321 2.08714,-1.084655 3.00746,-1.972108 l 4.09212,4.437232 c -2.49801,2.85954 -6.14639,4.28931 -10.94517,4.28931 -2.99102,0 -5.6369,-0.57517 -7.93769,-1.72558 -2.30079,-1.18326 -4.07568,-2.81024 -5.32467,-4.880949 -1.24896,-2.070707 -1.87349,-4.420791 -1.87349,-7.050261 0,-2.596606 0.60809,-4.930251 1.82418,-7.000955 1.24895,-2.103578 2.94172,-3.730564 5.07815,-4.880948 2.16933,-1.183259 4.58513,-1.774892 7.24748,-1.774892 2.59659,0 4.94667,0.558714 7.05025,1.676287 2.10358,1.117574 3.74698,2.728064 4.93025,4.83164 1.21618,2.070713 1.82419,4.486532 1.82419,7.247475 z m -13.75539,-7.937707 c -1.74203,0 -3.20467,0.492997 -4.38794,1.479073 -1.18325,0.986051 -1.90636,2.333646 -2.1693,4.042803 h 13.06516 c -0.26292,-1.676283 -0.98604,-3.007454 -2.16931,-3.993497 -1.18326,-1.018812 -2.62947,-1.528301 -4.33861,-1.528301 z m 31.50432,21.495895 c -2.79382,0 -5.30824,-0.57517 -7.54329,-1.72559 -2.20217,-1.18326 -3.92777,-2.81025 -5.17676,-4.880952 -1.24895,-2.070696 -1.87349,-4.42079 -1.87349,-7.050251 0,-2.629463 0.62454,-4.979559 1.87349,-7.050263 1.24894,-2.070703 2.97459,-3.68126 5.17676,-4.831643 2.23505,-1.18326 4.74947,-1.774893 7.54329,-1.774893 2.7938,0 5.2918,0.591633 7.49398,1.774893 2.20217,1.150339 3.92776,2.76094 5.17673,4.831643 1.24895,2.070704 1.87351,4.4208 1.87351,7.050263 0,2.629461 -0.62456,4.979555 -1.87351,7.050251 -1.24894,2.070702 -2.97456,3.697692 -5.17673,4.880952 -2.20218,1.15034 -4.70018,1.72559 -7.49398,1.72559 z m 0,-6.310719 c 1.97208,0 3.58265,-0.657322 4.83164,-1.972107 1.28187,-1.347542 1.92279,-3.138928 1.92279,-5.373967 0,-2.235053 -0.64085,-4.009934 -1.92279,-5.32468 -1.24894,-1.34755 -2.85956,-2.021398 -4.83164,-2.021398 -1.97211,0 -3.59908,0.673773 -4.88094,2.021398 -1.28188,1.314785 -1.92281,3.089627 -1.92281,5.32468 0,2.235039 0.64101,4.026371 1.92281,5.373967 1.28186,1.314785 2.90883,1.972107 4.88094,1.972107 z"
       id="text1"
       aria-label="meteor"
       sodipodi:nodetypes="cccsscccscssccsscccsscccssccscsccccccccccscscccccsscccscssccsscccsscccssscssscscssscsscscscscs"
       inkscape:export-filename="meteor-logo-blue-text.png"
       inkscape:export-xdpi="75"
       inkscape:export-ydpi="75" /><path
       style="font-weight:bold;font-size:3.175px;font-family:Montserrat;-inkscape-font-specification:'Montserrat Bold';fill:#f4f8f8;fill-opacity:1;stroke-width:4.10854"
       d="m 107.50987,78.571162 c 3.31971,0 5.94921,0.986047 7.88844,2.958149 1.97211,1.939228 2.95817,4.864518 2.95817,8.775841 v 15.185168 h -7.69124 V 91.488413 c 0,-2.103577 -0.44364,-3.664816 -1.3311,-4.68374 -0.85451,-1.051734 -2.08714,-1.57767 -3.6977,-1.57767 -1.80778,0 -3.23755,0.591621 -4.28935,1.774879 -1.05172,1.150348 -1.577684,2.875977 -1.577684,5.17677 V 105.49032 H 92.07822 V 91.488413 c 0,-4.174284 -1.676279,-6.26141 -5.028851,-6.26141 -1.774887,0 -3.188233,0.591621 -4.240012,1.774879 -1.051733,1.150348 -1.577679,2.875977 -1.577679,5.17677 v 13.311668 h -7.69119 V 85.741778 l 7.346072,-6.776197 v 3.056758 c 0.986049,-1.11758 2.185738,-1.972103 3.599079,-2.56373 1.446156,-0.591632 3.023881,-0.887447 4.733043,-0.887447 1.873492,0 3.566205,0.377953 5.078156,1.134034 1.511997,0.72316 2.728062,1.791316 3.648386,3.204664 1.08465,-1.380472 2.448696,-2.448697 4.092116,-3.204664 1.67629,-0.756076 3.50049,-1.134034 5.4726,-1.134034 z"
       id="text1-3"
       aria-label="meteor"
       sodipodi:nodetypes="scsccscscsccsscsccccccscccss"
       inkscape:export-filename="meteor-logo-blue-text.png"
       inkscape:export-xdpi="75"
       inkscape:export-ydpi="75" /><path
       style="font-weight:500;font-size:17.613px;line-height:0;font-family:Montserrat;-inkscape-font-specification:'Montserrat Medium';letter-spacing:10.4552px;fill:#f4f8f8;stroke-width:1.34367;fill-opacity:1"
       d="m 96.944331,115.86571 q 1.628535,0 2.579859,0.95132 0.96745,0.9352 0.96745,2.75723 v 4.91785 h -1.547915 v -4.7405 q 0,-1.24155 -0.596596,-1.87039 -0.596588,-0.62884 -1.709158,-0.62884 -1.257676,0 -1.983263,0.74171 -0.725579,0.72559 -0.725579,2.09613 v 4.40189 h -1.54792 v -8.54579 h 1.483412 v 1.28993 q 0.467605,-0.66108 1.257692,-1.01582 0.806194,-0.35472 1.822018,-0.35472 z m 23.760619,4.40189 q 0,0.17736 -0.0323,0.46758 h -6.93337 q 0.14513,1.1287 0.98358,1.82203 0.85457,0.67722 2.11226,0.67722 1.53178,0 2.46699,-1.03195 l 0.85458,0.9997 q -0.58047,0.67722 -1.45117,1.03195 -0.85458,0.35473 -1.91877,0.35473 -1.35443,0 -2.40251,-0.54822 -1.04806,-0.56436 -1.62852,-1.56403 -0.56436,-0.99971 -0.56436,-2.25739 0,-1.24155 0.54824,-2.24126 0.56433,-0.99969 1.53178,-1.54791 0.98357,-0.56434 2.209,-0.56434 1.22544,0 2.17677,0.56434 0.96744,0.54822 1.49954,1.54791 0.54822,0.99971 0.54822,2.28964 z m -4.22452,-3.09584 q -1.11256,0 -1.8704,0.67722 -0.7417,0.6772 -0.87071,1.77365 h 5.4822 q -0.12898,-1.08032 -0.88681,-1.75753 -0.74171,-0.69334 -1.85428,-0.69334 z m 20.74539,6.8205 q -0.3386,0.29023 -0.83844,0.45148 -0.49986,0.14512 -1.03195,0.14512 -1.28993,0 -1.99939,-0.69334 -0.70946,-0.69334 -0.70946,-1.98326 v -4.69213 h -1.45118 v -1.27381 h 1.45118 v -1.87039 h 1.54792 v 1.87039 h 2.45085 v 1.27381 h -2.45085 v 4.62763 q 0,0.69334 0.3386,1.0642 0.35473,0.37084 0.9997,0.37084 0.70945,0 1.2093,-0.4031 z m 24.21209,-8.04594 -3.19258,8.54579 h -1.48341 l -2.46699,-6.48189 -2.49924,6.48189 h -1.48342 l -3.17645,-8.54579 h 1.46729 l 2.48312,6.80439 2.57986,-6.80439 h 1.30605 l 2.53149,6.83664 2.54761,-6.83664 z m 14.55377,8.64254 q -1.27382,0 -2.28963,-0.56434 -1.01582,-0.56435 -1.5963,-1.54791 -0.56434,-0.99971 -0.56434,-2.25739 0,-1.25769 0.56434,-2.24126 0.58048,-0.99969 1.5963,-1.54791 1.01581,-0.56434 2.28963,-0.56434 1.2738,0 2.27349,0.56434 1.01582,0.54822 1.58016,1.54791 0.58047,0.98357 0.58047,2.24126 0,1.25768 -0.58047,2.25739 -0.56434,0.98356 -1.58016,1.54791 -0.99969,0.56434 -2.27349,0.56434 z m 0,-1.35443 q 0.82233,0 1.46729,-0.37086 0.66109,-0.38696 1.03194,-1.06419 0.37085,-0.69333 0.37085,-1.58016 0,-0.88683 -0.37085,-1.56404 -0.37085,-0.69334 -1.03194,-1.06419 -0.64496,-0.37086 -1.46729,-0.37086 -0.82234,0 -1.48344,0.37086 -0.64496,0.37085 -1.03193,1.06419 -0.37086,0.67721 -0.37086,1.56404 0,0.88683 0.37086,1.58016 0.38697,0.67723 1.03193,1.06419 0.6611,0.37086 1.48344,0.37086 z m 17.63345,-5.85306 q 0.4031,-0.74171 1.19317,-1.12869 0.79009,-0.38697 1.91878,-0.38697 v 1.49954 q -0.129,-0.0161 -0.35473,-0.0161 -1.25768,0 -1.98327,0.75784 -0.70946,0.7417 -0.70946,2.12838 v 4.25678 h -1.54792 v -8.5458 h 1.48343 z m 17.90756,3.12808 -1.77366,1.64467 v 2.33799 h -1.54791 v -11.96409 h 1.54791 v 7.67508 l 4.65988,-4.25678 h 1.87039 l -3.59567,3.53119 3.9504,5.0146 h -1.90264 z m 18.35902,4.07941 q -1.04807,0 -2.01552,-0.27411 -0.96744,-0.29023 -1.51566,-0.72558 l 0.64496,-1.22544 q 0.56435,0.4031 1.37055,0.64496 0.80621,0.24186 1.62855,0.24186 2.03163,0 2.03163,-1.16093 0,-0.38699 -0.27411,-0.61272 -0.2741,-0.22573 -0.69333,-0.32249 -0.40311,-0.11286 -1.16095,-0.24185 -1.03194,-0.16124 -1.69302,-0.37086 -0.64497,-0.20961 -1.11257,-0.70946 -0.4676,-0.49985 -0.4676,-1.40279 0,-1.16095 0.96744,-1.85428 0.96745,-0.70946 2.596,-0.70946 0.85457,0 1.70915,0.20961 0.85458,0.20962 1.40279,0.56434 l -0.66109,1.22544 q -1.04806,-0.67722 -2.46699,-0.67722 -0.98356,0 -1.49954,0.32248 -0.51597,0.32248 -0.51597,0.85458 0,0.41923 0.29023,0.6611 0.29024,0.24185 0.70946,0.35472 0.43535,0.11287 1.20931,0.25799 1.03195,0.17736 1.66079,0.38698 0.64497,0.19349 1.09644,0.67722 0.45148,0.48372 0.45148,1.35443 0,1.16093 -0.9997,1.85426 -0.98357,0.67722 -2.69273,0.67722 z"
       id="text2"
       aria-label="networks" /><path
       d="m 56.950928,103.1377 c 0,0.38115 0.285866,0.66701 0.66701,0.66701 0.158813,0 0.317629,-0.0636 0.412918,-0.15886 0.06353,-0.0318 8.194747,-8.893528 8.194747,-8.893528 l -8.925287,7.813608 c -0.222339,0.0953 -0.349391,0.31761 -0.349391,0.57173 z m -4.542054,1.81045 0.06353,-0.0635 17.628243,-19.311648 -19.248132,17.691768 -0.06353,0.0636 c -0.190579,0.19057 -0.317629,0.47644 -0.317629,0.79408 0,0.63523 0.508201,1.14344 1.143456,1.14344 0.285866,0 0.571725,-0.12701 0.794057,-0.31763 z M 40.466147,96.404031 66.352651,68.452939 38.242766,94.212402 c -0.317628,0.285862 -0.539967,0.698781 -0.539967,1.175221 0,0.857583 0.69878,1.556341 1.556364,1.556341 0.476445,0 0.921122,-0.190572 1.206984,-0.539933 z m 36.622262,-31.159114 -36.399923,34.176544 -0.03188,0.03184 c -0.285866,0.285868 -0.444682,0.667009 -0.444682,1.079949 0,0.85757 0.69878,1.55633 1.556374,1.55633 0.317628,0 0.635246,-0.0953 0.889349,-0.28586 0.158814,-0.0953 34.430644,-36.55873 34.430644,-36.55873 z M 47.612728,104.12234 73.499237,76.171246 45.389343,101.93072 c -0.317629,0.28586 -0.539963,0.69877 -0.539963,1.1752 0,0.85758 0.698782,1.55637 1.55637,1.55637 0.508201,0 0.921117,-0.22234 1.206978,-0.53995 z m -7.87712,-13.499115 0.06353,-0.06352 17.628239,-19.311654 -19.248128,17.691761 -0.06353,0.06352 c -0.190578,0.190574 -0.317627,0.476437 -0.317627,0.794062 0,0.635252 0.508202,1.143454 1.143449,1.143454 0.317629,0 0.571727,-0.127049 0.794066,-0.317626 z m 8.861759,-14.864894 -8.925285,7.813597 c -0.190578,0.12705 -0.349391,0.317629 -0.349391,0.571725 0,0.381153 0.285865,0.667018 0.66701,0.667018 0.158813,0 0.317628,-0.06353 0.412916,-0.158814 0.03188,-0.06352 8.19475,-8.893521 8.19475,-8.893526 z"
       fill="#df5052"
       id="path989"
       style="fill:#0ca5d6;fill-opacity:1;stroke-width:0.317626"
       inkscape:export-filename="/home/jankapunkt/Desktop/mrn.png"
       inkscape:export-xdpi="75"
       inkscape:export-ydpi="75" /><path
       d="m 245.48345,82.487254 c 0.92036,-1.281865 2.15287,-2.25149 3.69768,-2.908858 1.57767,-0.657314 3.38545,-0.986048 5.42327,-0.986048 v 7.09956 c -0.85452,-0.06527 -1.42984,-0.09784 -1.72558,-0.09784 -2.20219,0 -3.92778,0.62455 -5.17676,1.873496 -1.24895,1.216178 -1.87351,3.056753 -1.87351,5.521882 v 12.522844 h -7.69117 V 84.378096 l 7.34607,-5.390555 z"
       style="font-weight:bold;font-size:3.175px;font-family:Montserrat;-inkscape-font-specification:'Montserrat Bold';fill:#f4f8f8;fill-opacity:1;stroke-width:4.10854"
       id="path1-2"
       sodipodi:nodetypes="ccccscsccccc" /></g></svg>
